<svg xmlns="http://www.w3.org/2000/svg" width="900" height="900" viewBox="0 0 900 900">
  <rect width="100%" height="100%" fill="#ffffff"/>
  <text x="450" y="40" text-anchor="middle" font-family="Segoe UI, Arial, sans-serif" font-size="28">Cyclone Separator Case Schematic</text>
  <text x="450" y="72" text-anchor="middle" font-family="Segoe UI, Arial, sans-serif" font-size="16">Stairmand high-efficiency geometry, D = 290 mm</text>

  <rect x="250" y="140" width="290" height="250" fill="#f5f7fb" stroke="#1b365d" stroke-width="3"/>
  <polygon points="250,390 540,390 470,760 320,760" fill="#eef3f8" stroke="#1b365d" stroke-width="3"/>
  <rect x="322.5" y="100" width="145" height="180" fill="#ffffff" stroke="#b23a48" stroke-width="3"/>
  <rect x="192" y="185" width="58" height="145" fill="#fff3e6" stroke="#c77d00" stroke-width="3"/>
  <line x1="250" y1="185" x2="250" y2="330" stroke="#c77d00" stroke-width="3"/>
  <line x1="395" y1="760" x2="395" y2="840" stroke="#1b365d" stroke-width="3"/>
  <line x1="395" y1="760" x2="395" y2="840" stroke="#1b365d" stroke-width="3"/>
  <line x1="470" y1="760" x2="320" y2="760" stroke="#1b365d" stroke-width="3"/>

  <line x1="580" y1="140" x2="640" y2="140" stroke="#444" stroke-width="2"/>
  <line x1="580" y1="390" x2="640" y2="390" stroke="#444" stroke-width="2"/>
  <line x1="630" y1="140" x2="630" y2="390" stroke="#444" stroke-width="2"/>
  <text x="650" y="270" font-family="Segoe UI, Arial, sans-serif" font-size="18">h = 435 mm</text>

  <line x1="580" y1="390" x2="680" y2="390" stroke="#444" stroke-width="2"/>
  <line x1="580" y1="760" x2="680" y2="760" stroke="#444" stroke-width="2"/>
  <line x1="670" y1="390" x2="670" y2="760" stroke="#444" stroke-width="2"/>
  <text x="690" y="585" font-family="Segoe UI, Arial, sans-serif" font-size="18">hc = 725 mm</text>

  <line x1="250" y1="90" x2="540" y2="90" stroke="#444" stroke-width="2"/>
  <line x1="250" y1="82" x2="250" y2="98" stroke="#444" stroke-width="2"/>
  <line x1="540" y1="82" x2="540" y2="98" stroke="#444" stroke-width="2"/>
  <text x="395" y="78" text-anchor="middle" font-family="Segoe UI, Arial, sans-serif" font-size="18">D = 290 mm</text>

  <line x1="322.5" y1="58" x2="467.5" y2="58" stroke="#b23a48" stroke-width="2"/>
  <line x1="322.5" y1="50" x2="322.5" y2="66" stroke="#b23a48" stroke-width="2"/>
  <line x1="467.5" y1="50" x2="467.5" y2="66" stroke="#b23a48" stroke-width="2"/>
  <text x="395" y="48" text-anchor="middle" font-family="Segoe UI, Arial, sans-serif" font-size="18" fill="#b23a48">De = 145 mm</text>

  <line x1="192" y1="165" x2="250" y2="165" stroke="#c77d00" stroke-width="2"/>
  <line x1="192" y1="157" x2="192" y2="173" stroke="#c77d00" stroke-width="2"/>
  <line x1="250" y1="157" x2="250" y2="173" stroke="#c77d00" stroke-width="2"/>
  <text x="221" y="150" text-anchor="middle" font-family="Segoe UI, Arial, sans-serif" font-size="16" fill="#c77d00">b = 58 mm</text>

  <line x1="160" y1="185" x2="160" y2="330" stroke="#c77d00" stroke-width="2"/>
  <line x1="152" y1="185" x2="168" y2="185" stroke="#c77d00" stroke-width="2"/>
  <line x1="152" y1="330" x2="168" y2="330" stroke="#c77d00" stroke-width="2"/>
  <text x="122" y="262" text-anchor="middle" font-family="Segoe UI, Arial, sans-serif" font-size="16" fill="#c77d00">a = 145 mm</text>

  <line x1="322.5" y1="100" x2="300" y2="100" stroke="#b23a48" stroke-width="2"/>
  <line x1="322.5" y1="280" x2="300" y2="280" stroke="#b23a48" stroke-width="2"/>
  <line x1="290" y1="100" x2="290" y2="280" stroke="#b23a48" stroke-width="2"/>
  <text x="260" y="195" text-anchor="middle" font-family="Segoe UI, Arial, sans-serif" font-size="16" fill="#b23a48">Le</text>

  <line x1="467.5" y1="280" x2="490" y2="280" stroke="#b23a48" stroke-width="2"/>
  <line x1="467.5" y1="390" x2="490" y2="390" stroke="#b23a48" stroke-width="2"/>
  <line x1="500" y1="280" x2="500" y2="390" stroke="#b23a48" stroke-width="2"/>
  <text x="530" y="340" text-anchor="middle" font-family="Segoe UI, Arial, sans-serif" font-size="16" fill="#b23a48">s</text>

  <line x1="357.5" y1="790" x2="432.5" y2="790" stroke="#444" stroke-width="2"/>
  <line x1="357.5" y1="782" x2="357.5" y2="798" stroke="#444" stroke-width="2"/>
  <line x1="432.5" y1="782" x2="432.5" y2="798" stroke="#444" stroke-width="2"/>
  <text x="395" y="818" text-anchor="middle" font-family="Segoe UI, Arial, sans-serif" font-size="18">Dd = 109 mm</text>

  <path d="M 230 205 C 280 165, 340 165, 395 200" fill="none" stroke="#2a9d8f" stroke-width="4"/>
  <path d="M 395 220 C 510 260, 500 620, 395 700" fill="none" stroke="#2a9d8f" stroke-width="4"/>
  <path d="M 395 700 C 360 630, 360 360, 395 300" fill="none" stroke="#e63946" stroke-width="4"/>
  <path d="M 395 300 C 425 250, 440 220, 440 150" fill="none" stroke="#e63946" stroke-width="4"/>
  <text x="130" y="520" font-family="Segoe UI, Arial, sans-serif" font-size="18" fill="#2a9d8f">outer vortex</text>
  <text x="540" y="210" font-family="Segoe UI, Arial, sans-serif" font-size="18" fill="#e63946">inner vortex</text>
</svg>
